<svg viewBox="0 0 1200 1200" xmlns="http://www.w3.org/2000/svg" fill-rule="evenodd" clip-rule="evenodd" stroke-linejoin="round" stroke-miterlimit="2"><path d="M608.326 354.036v21.832h30.928V495.76l-15.828.546-16.01.545-.182 8.187c0 4.548.364 9.279.728 10.37.545 1.82 11.461 2.365 46.028 2.365h45.3v-21.831h-15.464c-11.097 0-15.464-.728-15.646-2.365 0-1.092-.181-33.112-.181-70.953l-.182-68.588h-59.492zm-381.144 51.668c-9.824 3.093-17.465 7.278-21.286 11.462-3.092 3.275-2.91 3.82 4.73 11.28 4.913 4.912 8.37 7.095 9.279 5.821 2.91-4.912 15.464-9.278 26.562-9.278 10.188 0 11.643.546 17.283 6.186 3.457 3.456 6.186 7.823 6.186 10.006v5.094c0 .728-5.822 1.455-13.1 1.82-15.827.727-29.108 3.456-37.84 7.822-29.473 14.918-28.928 52.214.727 60.947 17.283 5.094 33.293 2.729 43.845-6.732l6.368-5.458v13.1h29.472l-.727-41.48-.546-41.299-5.094-9.278c-6.004-10.916-11.826-15.646-23.833-19.649-10.188-3.456-31.656-3.638-42.026-.364zm43.663 66.95c-3.456 15.829-11.643 23.652-26.016 24.743-12.735.91-20.376-3.82-20.376-12.553 0-11.098 12.553-17.465 35.113-17.83l12.553-.181-1.274 5.822zm90.965-66.95c-9.824 3.093-17.465 7.278-21.285 11.462-3.093 3.275-2.911 3.82 4.73 11.28 4.912 4.912 8.368 7.095 9.278 5.821 2.911-4.912 15.464-9.278 26.562-9.278 10.188 0 11.643.546 17.283 6.186 3.457 3.456 6.186 7.823 6.186 10.006v5.094c0 .728-5.822 1.455-13.1 1.82-15.827.727-29.108 3.456-37.84 7.822-29.473 14.918-28.927 52.214.727 60.947 17.284 5.094 33.293 2.729 43.845-6.732l6.368-5.458v13.1h29.473l-.728-41.48-.546-41.299-5.094-9.278c-6.004-10.916-11.825-15.646-23.833-19.649-10.188-3.456-31.656-3.638-42.026-.364zm43.664 66.95c-3.457 15.829-11.644 23.652-26.016 24.743-4.993.357-10.58.044-14.964-2.66-6.684-4.122-6.946-13.453-1.812-18.873 2.79-2.946 6.682-4.761 10.488-5.975 6.748-2.15 13.987-2.761 21.024-2.874l12.553-.182-1.273 5.822zm106.429-66.04c-3.457 2.001-8.005 5.094-9.825 7.277-4.912 5.458-6.55 4.73-6.55-2.547v-6.367h-27.47l1.091 154.64h28.2v-26.562c0-24.196.181-26.198 2.91-23.469 10.006 10.007 33.293 12.372 47.484 4.913 17.101-8.915 25.106-26.016 25.106-53.124 0-28.017-9.278-46.574-27.29-54.76-9.46-4.367-25.288-4.367-33.656 0zm23.469 23.105c15.282 12.917 14.372 53.306-1.638 64.04-8.732 6.003-22.377 4.912-28.38-2.184-11.462-13.28-10.553-49.12 1.455-61.31 7.277-7.277 20.376-7.641 28.563-.546zm439.592-23.469c-2.911 1.456-8.187 5.276-11.28 8.369l-6.004 5.64v-15.282h-28.563v112.796h28.563v-37.841c0-34.203.364-38.205 3.639-43.481 6.186-10.188 23.105-15.464 30.382-9.46 6.732 5.64 7.823 13.098 7.823 52.577v38.205h27.29v-39.66c0-42.39-1.274-51.305-9.097-62.22-8.005-11.28-30.2-16.374-42.753-9.643zm-182.84 8.187a24337.64 24337.64 0 0121.286 56.398l17.829 46.938h22.013l7.823-18.738c19.103-45.483 29.473-72.59 31.838-82.96l2.547-11.098h-26.925v5.094c0 7.64-6.186 28.38-14.555 48.575-7.277 17.647-10.916 24.015-10.916 19.467 0-1.092-5.821-18.012-12.917-37.66l-13.099-35.476h-28.563l3.639 9.46zm-58.514 72.044c-9.825 7.823-10.552 18.193-1.82 26.926 6.914 6.913 12.735 7.823 21.104 3.457 6.732-3.457 9.097-7.823 9.097-16.374 0-13.827-17.83-22.56-28.381-14.009zM491.924 604.888c-2.547.364-12.735 8.187-12.735 8.187v157.551l-15.464 31.292c-15.1 30.565-15.464 31.292-15.464 44.391 0 11.644.546 14.19 4.366 18.557l4.367 5.094h310.008l4.367-5.094c3.82-4.366 4.366-6.913 4.366-18.557 0-13.099-.364-13.826-15.464-44.39l-15.464-31.293V614.53l-8.55-10.006H616.363c-66.04-.182-121.893.182-124.44.364zm241.421 11.644c.728 1.273 1.456 37.477 1.456 80.595l.182 78.23 13.099 25.834c7.277 14.372 13.099 26.38 13.099 26.925 0 .546-67.133.91-149.183.91s-149.183-.364-149.183-.91 5.458-12.007 12.19-25.47l12.37-24.56 97.333-.364 152.813-2.365v-6.732c-5.224-.094-51.019.04-57.663 0-1.82-.364-45.3-.546-96.423-.546-51.304.182-93.33-.182-93.512-.91 0-.545-.364-34.02-.728-74.59-.364-49.304 0-74.41 1.274-75.865 2.729-3.457 240.693-3.457 242.876-.182zM765.73 848.31c-.364 4.549-1.274 9.097-2.183 10.007-.91.91-65.313 1.455-152.64 1.273l-150.82-.546-.545-9.642-.546-9.46h307.098l-.364 8.368z" fill="red" fill-rule="nonzero"/><path d="M502.294 628.539c-2.729 3.093-3.093 10.006-3.093 62.766 0 57.126.182 59.673 3.639 63.13 3.639 3.638 6.004 3.638 109.158 3.638s105.52 0 109.158-3.638c3.457-3.457 3.639-6.004 3.639-63.312 0-55.67-.182-60.037-3.275-62.766-3.093-2.729-13.281-3.093-109.886-3.093-100.79 0-106.61.182-109.34 3.275zm211.585 5.822v112.796H510.117V634.361H713.88zm-218.68 156.823c-1.82 5.095.728 6.914 9.642 6.914 8.369 0 8.915-.364 8.915-4.548 0-4.185-.546-4.549-8.915-4.549-5.458 0-9.278.91-9.642 2.183zm30.018.728c-1.637 4.367 2.002 6.55 10.552 5.822 6.732-.364 8.187-1.274 8.551-4.73.546-3.639 0-4.003-8.733-4.003-6.731 0-9.46.728-10.37 2.911zm31.11-.182c-1.819 4.549 1.638 6.732 10.37 6.004 6.55-.364 8.005-1.274 8.005-4.184 0-3.093-1.455-3.639-8.732-4.185-6.55-.364-8.915.182-9.643 2.365zm30.929 0c-1.82 4.549 1.637 6.732 10.37 6.004 6.549-.364 8.004-1.274 8.004-4.184 0-3.093-1.455-3.639-8.732-4.185-6.55-.364-8.915.182-9.642 2.365zm30.928 0c-1.82 4.549 1.637 6.732 10.37 6.004 6.55-.364 8.005-1.274 8.005-4.184 0-3.093-1.456-3.639-8.733-4.185-6.55-.364-8.915.182-9.642 2.365zm30.928 0c-1.82 4.549 1.637 6.732 10.37 6.004 6.55-.364 8.005-1.274 8.005-4.184 0-3.093-1.456-3.639-8.733-4.185-6.55-.364-8.915.182-9.642 2.365zm30.564 1.274c.546 3.638 1.82 4.184 8.915 4.73 6.549.364 8.732-.182 9.642-2.365 1.82-4.912-.364-6.368-10.006-6.368-8.551 0-9.097.364-8.551 4.003zm30.564.546c0 4.184.546 4.548 8.915 4.548 8.732 0 11.461-1.82 9.824-6.914-.546-1.273-4.184-2.183-9.824-2.183-8.369 0-8.915.364-8.915 4.549zm-198.85 16.737c-2.182 2.001-1.455 7.823 1.092 8.005 1.092.182 4.367.364 7.277.546 6.368.728 11.28-2.911 9.825-6.914-.91-2-3.457-2.91-9.097-2.91-4.366 0-8.55.545-9.096 1.273zm30.929 0c-2.183 2.001-1.456 7.823 1.091 8.005 1.092.182 4.367.364 7.278.546 6.367.728 11.28-2.911 9.824-6.914-.91-2-3.457-2.91-9.097-2.91-4.366 0-8.55.545-9.096 1.273zm30.928-.182c-2.183 2.183-1.456 7.641 1.091 8.369 1.82.728 66.769.546 75.138-.182 1.819-.182 2.547-1.637 2.183-4.366-.546-4.003-.728-4.003-38.933-4.549-20.922-.181-38.751.182-39.48.728zm90.419 1.638c-1.637 4.002.91 6.185 7.46 6.549 10.551.546 12.189 0 11.46-4.366-.545-3.457-1.818-4.003-9.278-4.549-6.55-.363-8.914.182-9.642 2.366zm30.746.181c-1.455 3.64.91 5.64 8.005 6.732 6.914 1.091 12.553-2.365 10.916-6.732-1.637-4.002-17.283-4.184-18.92 0z" fill="red" fill-rule="nonzero"/></svg>