<svg viewBox="0 0 1025 920" xmlns="http://www.w3.org/2000/svg" fill-rule="evenodd" clip-rule="evenodd" stroke-linejoin="round" stroke-miterlimit="2"><g transform="translate(168.385 437.806) scale(.66842)"><circle cx="721.55" cy="430.76" r="105" fill="url(#_Linear1)"/><circle cx="721.55" cy="430.76" r="100" fill="#f5f5f5"/><path d="M86.35.3C53.596-.835 25.528 23.523 22.04 56.11h-18A3.64 3.64 0 00.4 59.75v6a3.64 3.64 0 003.64 3.64h18c3.539 33.189 32.532 57.741 65.851 55.763 33.319-1.978 59.204-29.787 58.792-63.162C146.271 28.616 119.707 1.455 86.35.3z" fill="url(#_Linear2)" fill-rule="nonzero" transform="translate(638 368)" opacity=".5"/><path d="M723.54 372.04c-30.776-1.045-57.136 21.851-60.41 52.47h-17.42a2.92 2.92 0 00-2.92 2.92v6.68a2.92 2.92 0 002.92 2.92h17.42c3.356 31.192 30.627 54.245 61.942 52.36 31.316-1.885 55.626-28.041 55.216-59.411-.41-31.37-25.394-56.883-56.748-57.949v.01z" fill="#fff" fill-rule="nonzero"/><circle cx="721.55" cy="430.76" r="41.25" fill="#a1887f"/><path d="M742.8 410.76s11.77 18.28 8.41 32.5c-.01 0 13.44-22.34-8.41-32.5z" fill="#fff" fill-opacity=".2" fill-rule="nonzero"/><circle cx="747.8" cy="453.26" r="3.75" fill="#fff" fill-opacity=".2"/><path fill="url(#_Linear3)" d="M32.426 68.463h213.27v308.72H32.426z" transform="rotate(-12.75 139.06 222.823)"/><path fill="url(#_Linear4)" d="M247.725 19.75h213.27v308.72h-213.27z" transform="rotate(-12.75 354.36 174.11)"/><path fill="#fff" d="M5.185 99.627l203.81-45.754 66.443 295.97-203.81 45.754z"/><path fill="#f5f5f5" d="M218.64 50.382L421.483 4.483l66.653 294.563-202.842 45.899z"/><path fill="#e0e0e0" d="M210.548 92.724l21.818-4.937.658 2.907-21.819 4.937zm2.31 10.18l21.818-4.937.658 2.907-21.818 4.937zm2.302 10.191l21.818-4.937.658 2.907-21.818 4.937zm2.3 10.181l21.818-4.937.658 2.907-21.818 4.937zm2.31 10.179l21.818-4.937.658 2.907-21.819 4.937zm2.3 10.182l21.818-4.937.658 2.907-21.818 4.937zm2.309 10.179l21.818-4.937.658 2.907-21.818 4.937zm2.301 10.191l21.82-4.937.657 2.907-21.819 4.937zm2.31 10.179l21.82-4.937.657 2.907-21.819 4.937zm2.3 10.181l21.82-4.937.657 2.907-21.819 4.937zm2.31 10.18l21.82-4.937.657 2.907-21.818 4.937zm2.303 10.191l21.818-4.937.658 2.907-21.819 4.937zm2.3 10.182l21.818-4.938.658 2.907-21.819 4.937zm2.3 10.178l21.818-4.937.658 2.907-21.819 4.937zm2.3 10.182l21.818-4.937.658 2.907-21.819 4.937zm2.312 10.19l21.818-4.938.658 2.907-21.818 4.937zm2.3 10.18l21.818-4.937.658 2.907-21.819 4.937zm2.31 10.18l21.818-4.938.658 2.907-21.819 4.937zm2.3 10.181l21.818-4.937.658 2.907-21.819 4.937zm2.311 10.189l21.818-4.937.658 2.907-21.818 4.937zm2.3 10.181l21.818-4.937.658 2.907-21.819 4.937zm2.3 10.181l21.818-4.937.658 2.907-21.819 4.937zm2.31 10.179l21.818-4.937.658 2.907-21.819 4.937zm2.3 10.182l21.818-4.937.658 2.907-21.819 4.937z"/><path fill="#294ace" fill-opacity=".3" d="M48.136 122.474l121.8-27.56 4.594 20.296-121.801 27.56zm-9.198 53.648l162.394-36.746 1.148 5.072-162.395 36.746zm2.677 11.848l162.394-36.747 1.148 5.072L42.762 193.04zm2.689 11.845l162.394-36.746 1.148 5.072L45.45 204.887zm2.673 11.845l77.812-17.608 1.148 5.072-77.813 17.607zm2.684 11.832l89.654-20.286 1.147 5.072-89.653 20.286zm2.674 11.843l162.394-36.746 1.148 5.072-162.395 36.746zm2.687 11.847l162.394-36.746 1.148 5.072-162.395 36.746zm2.678 11.841l150.554-34.067 1.148 5.072-150.554 34.066zm2.676 11.832l162.394-36.746 1.148 5.072-162.395 36.746zm2.676 11.853l84.582-19.14 1.147 5.073L64.2 287.779zm222.98-36.228l89.654-20.286 1.147 5.072-89.653 20.286zm2.674 11.842L451.1 221.576l1.148 5.072-162.395 36.746zm2.687 11.838l162.394-36.747 1.148 5.072L292.54 275.23zm2.678 11.84l150.554-34.067 1.147 5.072L295.22 287.07zm2.676 11.842l162.394-36.746 1.148 5.072-162.395 36.746zm2.676 11.844l84.582-19.14 1.147 5.073-84.581 19.138zm-170.881-16.47l98.11-22.2 15.312 67.67-98.11 22.2zM244.694 63.784l98.11-22.2 15.312 67.669-98.11 22.2zm96.022 70.732l98.11-22.2 15.312 67.669-98.11 22.2z"/><path d="M537.296 109.745c0-11.097-9.01-20.107-20.107-20.107H344.133c-11.097 0-20.107 9.01-20.107 20.107v268.506c0 11.097 9.01 20.107 20.107 20.107h173.056c11.097 0 20.107-9.01 20.107-20.107V109.745z" fill="url(#_Linear5)" transform="rotate(-12.75 430.66 243.999)"/><path d="M502.22 93.983c-2.448-10.823-13.224-17.623-24.048-15.174l-163.62 37.024c-10.823 2.449-17.622 13.225-15.173 24.048l57.778 255.341c2.449 10.823 13.225 17.623 24.048 15.174l163.62-37.024c10.823-2.449 17.623-13.225 15.173-24.048L502.221 93.983z" fill="#ff001e"/><path fill="#bdbdbd" d="M289.78 161.952l21.82-4.937.657 2.907-21.818 4.937zm2.31 10.179l21.82-4.937.657 2.907-21.819 4.937zm2.3 10.181l21.82-4.937.657 2.907-21.819 4.937zm2.313 10.189l21.818-4.937.658 2.907-21.819 4.937zm2.3 10.182l21.818-4.937.658 2.907-21.818 4.937zm2.309 10.179l21.818-4.937.658 2.907-21.819 4.937zm2.3 10.181l21.818-4.937.658 2.907-21.819 4.937zm2.3 10.179l21.818-4.937.658 2.907-21.819 4.937zm2.302 10.191l21.818-4.937.658 2.907-21.819 4.937zm2.3 10.182l21.818-4.937.658 2.907-21.819 4.937zm2.31 10.179l21.818-4.937.658 2.907-21.819 4.937zm2.3 10.181l21.818-4.937.658 2.907-21.819 4.937zm2.312 10.189l21.818-4.937.658 2.907-21.819 4.937zm2.3 10.182l21.818-4.937.658 2.907-21.819 4.937zm2.31 10.179l21.818-4.937.658 2.907-21.819 4.937zm2.3 10.181l21.818-4.937.658 2.907-21.819 4.937zm2.312 10.189l21.818-4.937.658 2.907-21.819 4.937zm2.3 10.182l21.818-4.937.658 2.907-21.819 4.937zm2.3 10.181l21.818-4.937.658 2.907-21.819 4.937zm2.309 10.179l21.818-4.937.658 2.907-21.819 4.937zm2.293 10.191l21.818-4.937.658 2.907-21.819 4.937zm2.309 10.179l21.818-4.937.658 2.907-21.819 4.937zm2.3 10.183l21.818-4.938.658 2.907-21.819 4.937zm2.31 10.178l21.818-4.937.658 2.907-21.819 4.937z"/><path fill="#69f0ae" d="M171.46 373.393l9.754-2.207 20.083 88.757-9.753 2.207z"/><path fill="url(#_Linear6)" d="M5.246 1.639h18v46h-18z" transform="rotate(-12.75 1588.476 -519.92)" opacity=".5"/><path fill="#69f0ae" d="M161.292 339.808l14.63-3.31 9.49 41.94-14.63 3.31z"/><path fill="#fff" fill-opacity=".3" d="M161.292 339.808l14.63-3.31 9.49 41.94-14.63 3.31z"/><path fill="#69f0ae" d="M193.278 460.729l5.852-1.324 1.324 5.852-5.852 1.324z"/><path d="M164.76 348.24l-5.85 1.32.44 1.95 3.75 16.58 1.95-.44-3.75-16.58 3.9-.88-.44-1.95z" fill="#69f0ae" fill-rule="nonzero"/><path d="M164.76 348.24l-5.85 1.32.44 1.95 3.75 16.58 1.95-.44-3.75-16.58 3.9-.88-.44-1.95z" fill="#fff" fill-opacity=".3" fill-rule="nonzero"/><g opacity=".5" fill="#47e6b1"><path d="M184.55 654.76h3v17h-3z"/><path d="M194.55 661.76v3h-17v-3z"/></g><g opacity=".5" fill="#47e6b1"><path d="M727.55 32.76h3v17h-3z"/><path d="M737.55 39.76v3h-17v-3z"/></g><g opacity=".5" fill="#47e6b1"><path d="M637.55 249.76h3v17h-3z"/><path d="M647.55 256.76v3h-17v-3z"/></g><g opacity=".5" fill="#47e6b1"><path d="M895.15 288.76h3v17h-3z"/><path d="M905.15 295.77v3h-17v-3z"/></g><path d="M359.24 653.11a3.67 3.67 0 01-2-4.44 1.74 1.74 0 00.08-.41 1.841 1.841 0 00-3.31-1.22c-.08.112-.148.233-.2.36a3.67 3.67 0 01-4.44 2 1.74 1.74 0 00-.41-.08 1.841 1.841 0 00-1.22 3.31c.112.08.233.148.36.2a3.67 3.67 0 012 4.44 1.74 1.74 0 00-.08.41 1.84 1.84 0 003.53.87 3.67 3.67 0 014.44-2c.133.043.271.07.41.08a1.841 1.841 0 001.22-3.31 1.784 1.784 0 00-.38-.21zm183 12a3.67 3.67 0 01-2-4.44 1.74 1.74 0 00.08-.41 1.841 1.841 0 00-3.31-1.22c-.08.112-.148.233-.2.36a3.67 3.67 0 01-4.44 2 1.74 1.74 0 00-.41-.08 1.841 1.841 0 00-1.22 3.31c.112.08.233.148.36.2a3.67 3.67 0 012 4.44 1.74 1.74 0 00-.08.41 1.84 1.84 0 003.53.87 3.67 3.67 0 014.44-2c.133.043.271.07.41.08a1.841 1.841 0 001.22-3.31 1.784 1.784 0 00-.38-.21zm219-431a3.67 3.67 0 01-2-4.44 1.74 1.74 0 00.08-.41 1.841 1.841 0 00-3.31-1.22c-.08.112-.148.233-.2.36a3.67 3.67 0 01-4.44 2 1.74 1.74 0 00-.41-.08 1.841 1.841 0 00-1.22 3.31c.112.08.233.148.36.2a3.67 3.67 0 012 4.44 1.74 1.74 0 00-.08.41 1.84 1.84 0 003.53.87 3.67 3.67 0 014.44-2c.133.043.271.07.41.08a1.841 1.841 0 001.22-3.31 1.784 1.784 0 00-.38-.21zm152 161a3.67 3.67 0 01-2-4.44 1.74 1.74 0 00.08-.41 1.841 1.841 0 00-3.31-1.22c-.08.112-.148.233-.2.36a3.67 3.67 0 01-4.44 2 1.74 1.74 0 00-.41-.08 1.841 1.841 0 00-1.22 3.31c.112.08.233.148.36.2a3.67 3.67 0 012 4.44 1.74 1.74 0 00-.08.41 1.84 1.84 0 003.53.87 3.67 3.67 0 014.44-2c.133.043.271.07.41.08a1.841 1.841 0 001.22-3.31 1.784 1.784 0 00-.38-.21z" fill="#4d8af0" fill-opacity=".5" fill-rule="nonzero"/><circle cx="106.55" cy="599.76" r="6" fill="#f55f44" fill-opacity=".5"/><circle cx="524.55" cy="50.76" r="6" fill="#4d8af0" fill-opacity=".5"/><circle cx="499.55" cy="489.76" r="6" fill="#47e6b1" fill-opacity=".5"/><circle cx="845.55" cy="639.76" r="6" fill="#f55f44" fill-opacity=".5"/><path d="M-20.814 84.083h286a6.28 6.28 0 016.28 6.28v152.94a6.29 6.29 0 01-6.29 6.29h-286a6.28 6.28 0 01-6.28-6.28V90.383a6.284 6.284 0 016.29-6.3z" fill="url(#_Linear7)" fill-rule="nonzero" transform="rotate(-73.39 517.036 -355.995)" opacity=".5"/><path d="M1019.475 79.674c3.256-10.78-2.853-22.178-13.634-25.435l-115.51-34.894c-10.781-3.257-22.179 2.852-25.435 13.633l-72.484 239.946c-3.257 10.781 2.852 22.179 13.633 25.435l115.51 34.894c10.782 3.257 22.18-2.852 25.436-13.633l72.484-239.946z" fill="#fff"/><path d="M983.5 51.11a13.05 13.05 0 01-15.5 7l-53.29-16a13.05 13.05 0 01-9.15-14.32l-28.21-8.37a6.12 6.12 0 00-7.61 4.11l-75.47 252.82a6.12 6.12 0 004.11 7.61l134.84 40.23a6.12 6.12 0 007.61-4.11l75.44-252.82a6.127 6.127 0 00-4.11-7.61l-28.66-8.54z" fill="#e0e0e0" fill-rule="nonzero"/><path d="M959.298 48.408a1.12 1.12 0 00-.77-1.384l-32.355-9.21a1.12 1.12 0 00-.613 2.154l32.354 9.21a1.12 1.12 0 001.384-.77z" fill="#dbdbdb"/><circle cx="966.645" cy="50.297" r="1.35" fill="#dbdbdb" transform="rotate(-74.11 966.645 50.297)"/><path fill="#fff" d="M872.585 69.416l42.42 11.684-10.09 36.636-42.42-11.684z"/><path fill="#294ace" fill-opacity=".3" d="M857.97 122.433l42.42 11.685-10.09 36.635-42.421-11.684z"/><path fill="#fff" d="M843.371 175.472l42.42 11.685-10.09 36.635-42.421-11.684z"/><path fill="#3ad29f" fill-opacity=".3" d="M828.766 228.488l42.42 11.685-10.09 36.635-42.42-11.684z"/><path fill="#fff" d="M923.216 92.7l55.918 15.403-1.063 3.856-55.917-15.402zm-3.188 11.569l55.917 15.402-1.062 3.856-55.917-15.402zm-11.152 40.485l55.917 15.402-1.062 3.856-55.917-15.402zm-3.188 11.576l55.918 15.403-1.063 3.856-55.917-15.402zm-11.152 40.486l55.917 15.403-1.062 3.856-55.917-15.402zm-3.188 11.567l55.918 15.403-1.063 3.856-55.917-15.402zm-11.152 40.496l55.917 15.402-1.062 3.857-55.917-15.403zm-3.188 11.568l55.918 15.402-1.062 3.857-55.918-15.403z"/><path fill="url(#_Linear8)" d="M-15.015 68.962h203.96v62.36h-203.96z" transform="rotate(-52.76 760.19 59.72)" opacity=".5"/><path fill="#e0e0e0" d="M422.713 522.464l47.202 35.88-121.776 160.2-47.201-35.88z"/><path fill="#4d8af0" d="M427.718 530.335l33.365 25.362-25.362 33.364-33.365-25.362z"/><path fill="#4d8af0" fill-opacity=".5" d="M397.105 570.622l33.365 25.363-25.362 33.364-33.365-25.362z"/><path fill="#4d8af0" fill-opacity=".3" d="M366.475 610.904l33.365 25.362-25.362 33.365-33.365-25.362z"/><path fill="url(#_Linear9)" d="M-38.229 75.12h203.2v62.36h-203.2z" transform="rotate(-71.1 561.11 159.691)" opacity=".5"/><path fill="#f5f5f5" d="M354.228 509l56.093 19.206-64.936 189.661-56.093-19.205z"/><path fill="#ff5252" d="M361.438 514.89l39.65 13.575-13.575 39.65-39.65-13.575z"/><path fill="#ff5252" fill-opacity=".5" d="M345.056 562.76l39.65 13.576-13.575 39.65-39.65-13.575z"/><path fill="#ff5252" fill-opacity=".3" d="M328.66 610.64l39.65 13.575-13.575 39.65-39.65-13.575z"/><path fill="url(#_Linear10)" d="M-57.408 74.045h203.2v62.36h-203.2z" transform="rotate(-82.8 475.298 197.023)" opacity=".5"/><path fill="#f5f5f5" d="M313.91 510.15l58.822 7.431-25.125 198.89-58.823-7.432z"/><path fill="#69f0ae" d="M322.135 514.455l41.58 5.253-5.253 41.58-41.58-5.253z"/><path fill="#69f0ae" fill-opacity=".5" d="M315.793 564.654l41.58 5.253-5.253 41.58-41.58-5.254z"/><path fill="#69f0ae" fill-opacity=".3" d="M309.45 614.853l41.58 5.253-5.252 41.58-41.58-5.253z"/><path fill="url(#_Linear11)" d="M.88.66h62.36v203.2H.88z" transform="translate(284 515)" opacity=".5"/><path fill="#fff" d="M286.92 517.02h59.29v200.47h-59.29z"/><path fill="#ff0018" d="M295.61 520.26h41.91v41.91h-41.91z"/><path fill="#f01" fill-opacity=".39" d="M295.61 570.86h41.91v41.91h-41.91z"/><path fill="#ff0029" fill-opacity=".14" d="M295.61 621.47h41.91v41.91h-41.91z"/></g><path d="M510.153 50.24v10.98h15.557v60.308l-7.962.275-8.053.274-.092 4.118c0 2.288.184 4.668.367 5.217.274.915 5.765 1.19 23.153 1.19h22.787V121.62h-7.779c-5.582 0-7.779-.366-7.87-1.19 0-.549-.092-16.656-.092-35.69l-.091-34.502h-29.925zM318.43 76.23c-4.943 1.555-8.786 3.66-10.708 5.765-1.556 1.647-1.464 1.922 2.38 5.674 2.47 2.47 4.209 3.569 4.667 2.928 1.464-2.47 7.778-4.667 13.36-4.667 5.125 0 5.858.275 8.695 3.111 1.738 1.74 3.111 3.936 3.111 5.034v2.562c0 .366-2.928.732-6.589.915-7.962.366-14.642 1.74-19.035 3.936-14.825 7.504-14.55 26.264.366 30.657 8.694 2.562 16.747 1.373 22.055-3.386l3.203-2.746v6.59h14.825l-.366-20.866-.274-20.774-2.563-4.667c-3.02-5.49-5.948-7.87-11.988-9.884-5.125-1.738-15.924-1.83-21.14-.183zm21.963 33.677c-1.74 7.962-5.857 11.897-13.087 12.446-6.406.457-10.25-1.922-10.25-6.315 0-5.582 6.315-8.785 17.663-8.968l6.314-.092-.64 2.929zM386.15 76.23c-4.942 1.555-8.785 3.66-10.707 5.765-1.556 1.647-1.464 1.922 2.38 5.674 2.47 2.47 4.209 3.569 4.666 2.928 1.465-2.47 7.78-4.667 13.362-4.667 5.124 0 5.857.275 8.694 3.111 1.738 1.74 3.111 3.936 3.111 5.034v2.562c0 .366-2.928.732-6.589.915-7.962.366-14.642 1.74-19.035 3.936-14.826 7.504-14.551 26.264.366 30.657 8.694 2.562 16.747 1.373 22.055-3.386l3.203-2.746v6.59h14.825l-.366-20.866-.274-20.774-2.563-4.667c-3.02-5.49-5.948-7.87-11.988-9.884-5.125-1.738-15.924-1.83-21.14-.183zm21.964 33.677c-1.74 7.962-5.857 11.897-13.087 12.446-2.511.18-5.322.022-7.527-1.338-3.362-2.074-3.494-6.768-.912-9.494 1.404-1.481 3.362-2.395 5.276-3.005 3.395-1.082 7.036-1.39 10.576-1.446l6.314-.092-.64 2.929zm53.536-33.22c-1.739 1.007-4.027 2.562-4.942 3.66-2.471 2.746-3.295 2.38-3.295-1.28v-3.204h-13.818l.549 77.788h14.185V140.29c0-12.172.091-13.178 1.464-11.806 5.033 5.034 16.747 6.223 23.885 2.471 8.603-4.484 12.63-13.086 12.63-26.722 0-14.093-4.668-23.428-13.728-27.546-4.759-2.196-12.72-2.196-16.93 0zm11.805 11.622c7.687 6.498 7.23 26.814-.823 32.214-4.393 3.02-11.257 2.47-14.277-1.099-5.765-6.68-5.308-24.709.732-30.84 3.66-3.66 10.25-3.844 14.368-.275zM694.58 76.504c-1.465.732-4.119 2.654-5.674 4.21l-3.02 2.837v-7.688h-14.368v56.74h14.368v-19.036c0-17.204.183-19.218 1.83-21.872 3.112-5.124 11.622-7.778 15.283-4.758 3.386 2.837 3.935 6.589 3.935 26.447v19.219h13.727v-19.95c0-21.324-.64-25.808-4.575-31.299-4.027-5.674-15.192-8.236-21.506-4.85zm-91.973 4.118c1.007 2.654 5.857 15.466 10.708 28.37l8.968 23.61h11.073l3.935-9.425c9.61-22.88 14.826-36.515 16.015-41.731l1.282-5.583h-13.545v2.563c0 3.843-3.111 14.276-7.32 24.434-3.661 8.877-5.492 12.08-5.492 9.792 0-.549-2.928-9.06-6.497-18.943l-6.59-17.846h-14.367l1.83 4.76zm-29.434 36.24c-4.942 3.935-5.308 9.151-.915 13.544 3.478 3.478 6.406 3.935 10.616 1.739 3.386-1.739 4.576-3.935 4.576-8.236 0-6.955-8.969-11.348-14.277-7.047zM451.6 176.423c-1.281.183-6.406 4.118-6.406 4.118v79.252l-7.779 15.74c-7.595 15.375-7.778 15.741-7.778 22.33 0 5.857.274 7.138 2.196 9.335l2.196 2.562h155.942l2.196-2.562c1.922-2.197 2.196-3.478 2.196-9.335 0-6.589-.183-6.955-7.779-22.33l-7.778-15.74v-78.52l-4.301-5.033h-60.309c-33.22-.091-61.315.092-62.596.183zm121.44 5.857c.366.64.732 18.852.732 40.541l.092 39.352 6.589 12.995c3.66 7.23 6.59 13.27 6.59 13.544 0 .274-33.77.457-75.043.457s-75.042-.183-75.042-.457c0-.275 2.745-6.04 6.131-12.812l6.223-12.355 48.96-.183 76.869-1.19v-3.385c-2.628-.048-25.664.02-29.006 0-.915-.184-22.787-.275-48.503-.275-25.807.091-46.947-.092-47.038-.458 0-.274-.184-17.113-.367-37.52-.183-24.801 0-37.43.641-38.162 1.373-1.74 121.074-1.74 122.172-.092zm16.29 116.59c-.183 2.288-.64 4.576-1.098 5.033-.458.458-32.854.732-76.781.64l-75.866-.274-.274-4.85-.275-4.759h154.477l-.183 4.21z" fill="red" fill-rule="nonzero"/><path d="M456.817 188.32c-1.373 1.556-1.556 5.033-1.556 31.573 0 28.735.091 30.017 1.83 31.755 1.83 1.83 3.02 1.83 54.909 1.83 51.889 0 53.079 0 54.909-1.83 1.739-1.738 1.83-3.02 1.83-31.847 0-28.003-.091-30.2-1.647-31.572-1.556-1.373-6.68-1.556-55.275-1.556-50.7 0-53.628.091-55 1.647zm106.431 2.929v56.739H460.752v-56.74h102.496zm-110.001 78.885c-.915 2.563.366 3.478 4.85 3.478 4.21 0 4.485-.183 4.485-2.288s-.275-2.288-4.484-2.288c-2.746 0-4.668.458-4.85 1.098zm15.1.366c-.823 2.197 1.007 3.295 5.308 2.929 3.386-.183 4.118-.64 4.301-2.38.275-1.83 0-2.013-4.392-2.013-3.386 0-4.76.366-5.217 1.464zm15.649-.091c-.915 2.288.824 3.386 5.217 3.02 3.294-.183 4.026-.64 4.026-2.105 0-1.556-.732-1.83-4.392-2.105-3.295-.183-4.485.092-4.85 1.19zm15.558 0c-.915 2.288.824 3.386 5.216 3.02 3.295-.183 4.027-.64 4.027-2.105 0-1.556-.732-1.83-4.393-2.105-3.294-.183-4.484.092-4.85 1.19zm15.557 0c-.915 2.288.824 3.386 5.217 3.02 3.294-.183 4.026-.64 4.026-2.105 0-1.556-.732-1.83-4.392-2.105-3.295-.183-4.485.092-4.85 1.19zm15.558 0c-.915 2.288.824 3.386 5.216 3.02 3.295-.183 4.027-.64 4.027-2.105 0-1.556-.732-1.83-4.393-2.105-3.294-.183-4.484.092-4.85 1.19zm15.374.641c.275 1.83.916 2.104 4.485 2.379 3.294.183 4.392-.092 4.85-1.19.915-2.47-.183-3.203-5.033-3.203-4.302 0-4.576.183-4.302 2.014zm15.375.274c0 2.105.274 2.288 4.484 2.288 4.393 0 5.766-.915 4.942-3.478-.275-.64-2.105-1.098-4.942-1.098-4.21 0-4.484.183-4.484 2.288zm-100.026 8.419c-1.098 1.007-.732 3.936.55 4.027.548.092 2.196.183 3.66.275 3.203.366 5.674-1.465 4.942-3.478-.458-1.007-1.74-1.464-4.576-1.464-2.196 0-4.301.274-4.576.64zm15.558 0c-1.098 1.007-.732 3.936.549 4.027.549.092 2.196.183 3.66.275 3.203.366 5.674-1.465 4.942-3.478-.457-1.007-1.739-1.464-4.575-1.464-2.197 0-4.302.274-4.576.64zm15.557-.091c-1.098 1.098-.732 3.844.55 4.21.915.366 33.585.274 37.795-.092.915-.091 1.281-.824 1.098-2.196-.274-2.014-.366-2.014-19.584-2.288-10.524-.092-19.493.091-19.859.366zm45.483.824c-.824 2.013.458 3.111 3.752 3.294 5.308.275 6.132 0 5.766-2.196-.275-1.74-.915-2.014-4.668-2.288-3.294-.183-4.484.091-4.85 1.19zm15.466.091c-.732 1.83.458 2.837 4.027 3.386 3.477.55 6.314-1.19 5.49-3.386-.823-2.013-8.693-2.105-9.517 0z" fill="red" fill-rule="nonzero"/><defs><linearGradient id="_Linear1" x1="0" y1="0" x2="1" y2="0" gradientUnits="userSpaceOnUse" gradientTransform="matrix(0 -210 210 0 721.55 535.76)"><stop offset="0" stop-color="gray" stop-opacity=".25"/><stop offset=".54" stop-color="gray" stop-opacity=".12"/><stop offset="1" stop-color="gray" stop-opacity=".1"/></linearGradient><linearGradient id="_Linear2" x1="0" y1="0" x2="1" y2="0" gradientUnits="userSpaceOnUse" gradientTransform="rotate(-90 94831.2 -21935.8) scale(15625.3)"><stop offset="0" stop-color="gray" stop-opacity=".25"/><stop offset=".54" stop-color="gray" stop-opacity=".12"/><stop offset="1" stop-color="gray" stop-opacity=".1"/></linearGradient><linearGradient id="_Linear3" x1="0" y1="0" x2="1" y2="0" gradientUnits="userSpaceOnUse" gradientTransform="matrix(0 -95308 95308 0 50867.5 132293)"><stop offset="0" stop-color="gray" stop-opacity=".25"/><stop offset=".54" stop-color="gray" stop-opacity=".12"/><stop offset="1" stop-color="gray" stop-opacity=".1"/></linearGradient><linearGradient id="_Linear4" x1="0" y1="0" x2="1" y2="0" gradientUnits="userSpaceOnUse" gradientTransform="matrix(0 -95308 95308 0 98155.7 132245)"><stop offset="0" stop-color="gray" stop-opacity=".25"/><stop offset=".54" stop-color="gray" stop-opacity=".12"/><stop offset="1" stop-color="gray" stop-opacity=".1"/></linearGradient><linearGradient id="_Linear5" x1="0" y1="0" x2="1" y2="0" gradientUnits="userSpaceOnUse" gradientTransform="matrix(0 -95308 95308 0 110815 158556)"><stop offset="0" stop-color="gray" stop-opacity=".25"/><stop offset=".54" stop-color="gray" stop-opacity=".12"/><stop offset="1" stop-color="gray" stop-opacity=".1"/></linearGradient><linearGradient id="_Linear6" x1="0" y1="0" x2="1" y2="0" gradientUnits="userSpaceOnUse" gradientTransform="matrix(324 0 0 324 4194.21 19042.9)"><stop offset="0" stop-color="gray" stop-opacity=".25"/><stop offset=".54" stop-color="gray" stop-opacity=".12"/><stop offset="1" stop-color="gray" stop-opacity=".1"/></linearGradient><linearGradient id="_Linear7" x1="0" y1="0" x2="1" y2="0" gradientUnits="userSpaceOnUse" gradientTransform="rotate(-85.874 47325.257 18056.017) scale(51275.51)"><stop offset="0" stop-color="gray" stop-opacity=".25"/><stop offset=".54" stop-color="gray" stop-opacity=".12"/><stop offset="1" stop-color="gray" stop-opacity=".1"/></linearGradient><linearGradient id="_Linear8" x1="0" y1="0" x2="1" y2="0" gradientUnits="userSpaceOnUse" gradientTransform="rotate(-90 73575.3 -26248.1) scale(12718.9)"><stop offset="0" stop-color="gray" stop-opacity=".25"/><stop offset=".54" stop-color="gray" stop-opacity=".12"/><stop offset="1" stop-color="gray" stop-opacity=".1"/></linearGradient><linearGradient id="_Linear9" x1="0" y1="0" x2="1" y2="0" gradientUnits="userSpaceOnUse" gradientTransform="matrix(0 -12671.6 12671.6 0 93198.1 51328.2)"><stop offset="0" stop-color="gray" stop-opacity=".25"/><stop offset=".54" stop-color="gray" stop-opacity=".12"/><stop offset="1" stop-color="gray" stop-opacity=".1"/></linearGradient><linearGradient id="_Linear10" x1="0" y1="0" x2="1" y2="0" gradientUnits="userSpaceOnUse" gradientTransform="matrix(0 -12671.6 12671.6 0 85187 50486.5)"><stop offset="0" stop-color="gray" stop-opacity=".25"/><stop offset=".54" stop-color="gray" stop-opacity=".12"/><stop offset="1" stop-color="gray" stop-opacity=".1"/></linearGradient><linearGradient id="_Linear11" x1="0" y1="0" x2="1" y2="0" gradientUnits="userSpaceOnUse" gradientTransform="matrix(0 -41290.2 41290.2 0 19648 146073)"><stop offset="0" stop-color="gray" stop-opacity=".25"/><stop offset=".54" stop-color="gray" stop-opacity=".12"/><stop offset="1" stop-color="gray" stop-opacity=".1"/></linearGradient></defs></svg>