<svg viewBox="0 0 1025 920" xmlns="http://www.w3.org/2000/svg" fill-rule="evenodd" clip-rule="evenodd" stroke-linejoin="round" stroke-miterlimit="2"><g transform="translate(-1 199)"><circle cx="721.55" cy="430.76" r="105" fill="url(#_Linear1)"/><circle cx="721.55" cy="430.76" r="100" fill="#f5f5f5"/><path d="M86.35.3C53.596-.835 25.528 23.523 22.04 56.11h-18A3.64 3.64 0 00.4 59.75v6a3.64 3.64 0 003.64 3.64h18c3.539 33.189 32.532 57.741 65.851 55.763 33.319-1.978 59.204-29.787 58.792-63.162C146.271 28.616 119.707 1.455 86.35.3z" fill="url(#_Linear2)" fill-rule="nonzero" transform="translate(638 368)" opacity=".5"/><path d="M723.54 372.04c-30.776-1.045-57.136 21.851-60.41 52.47h-17.42a2.92 2.92 0 00-2.92 2.92v6.68a2.92 2.92 0 002.92 2.92h17.42c3.356 31.192 30.627 54.245 61.942 52.36 31.316-1.885 55.626-28.041 55.216-59.411-.41-31.37-25.394-56.883-56.748-57.949v.01z" fill="#fff" fill-rule="nonzero"/><circle cx="721.55" cy="430.76" r="41.25" fill="#a1887f"/><path d="M742.8 410.76s11.77 18.28 8.41 32.5c-.01 0 13.44-22.34-8.41-32.5z" fill="#fff" fill-opacity=".2" fill-rule="nonzero"/><circle cx="747.8" cy="453.26" r="3.75" fill="#fff" fill-opacity=".2"/><path fill="url(#_Linear3)" d="M32.426 68.463h213.27v308.72H32.426z" transform="rotate(-12.75 139.06 222.823)"/><path fill="url(#_Linear4)" d="M247.725 19.75h213.27v308.72h-213.27z" transform="rotate(-12.75 354.36 174.11)"/><path fill="#fff" d="M5.185 99.627l203.81-45.754 66.443 295.97-203.81 45.754z"/><path fill="#f5f5f5" d="M218.64 50.382L421.483 4.483l66.653 294.563-202.842 45.899z"/><path fill="#e0e0e0" d="M210.548 92.724l21.818-4.937.658 2.907-21.819 4.937zm2.31 10.18l21.818-4.937.658 2.907-21.818 4.937zm2.302 10.191l21.818-4.937.658 2.907-21.818 4.937zm2.3 10.181l21.818-4.937.658 2.907-21.818 4.937zm2.31 10.179l21.818-4.937.658 2.907-21.819 4.937zm2.3 10.182l21.818-4.937.658 2.907-21.818 4.937zm2.309 10.179l21.818-4.937.658 2.907-21.818 4.937zm2.301 10.191l21.82-4.937.657 2.907-21.819 4.937zm2.31 10.179l21.82-4.937.657 2.907-21.819 4.937zm2.3 10.181l21.82-4.937.657 2.907-21.819 4.937zm2.31 10.18l21.82-4.937.657 2.907-21.818 4.937zm2.303 10.191l21.818-4.937.658 2.907-21.819 4.937zm2.3 10.182l21.818-4.938.658 2.907-21.819 4.937zm2.3 10.178l21.818-4.937.658 2.907-21.819 4.937zm2.3 10.182l21.818-4.937.658 2.907-21.819 4.937zm2.312 10.19l21.818-4.938.658 2.907-21.818 4.937zm2.3 10.18l21.818-4.937.658 2.907-21.819 4.937zm2.31 10.18l21.818-4.938.658 2.907-21.819 4.937zm2.3 10.181l21.818-4.937.658 2.907-21.819 4.937zm2.311 10.189l21.818-4.937.658 2.907-21.818 4.937zm2.3 10.181l21.818-4.937.658 2.907-21.819 4.937zm2.3 10.181l21.818-4.937.658 2.907-21.819 4.937zm2.31 10.179l21.818-4.937.658 2.907-21.819 4.937zm2.3 10.182l21.818-4.937.658 2.907-21.819 4.937z"/><path fill="#294ace" fill-opacity=".3" d="M48.136 122.474l121.8-27.56 4.594 20.296-121.801 27.56zm-9.198 53.648l162.394-36.746 1.148 5.072-162.395 36.746zm2.677 11.848l162.394-36.747 1.148 5.072L42.762 193.04zm2.689 11.845l162.394-36.746 1.148 5.072L45.45 204.887zm2.673 11.845l77.812-17.608 1.148 5.072-77.813 17.607zm2.684 11.832l89.654-20.286 1.147 5.072-89.653 20.286zm2.674 11.843l162.394-36.746 1.148 5.072-162.395 36.746zm2.687 11.847l162.394-36.746 1.148 5.072-162.395 36.746zm2.678 11.841l150.554-34.067 1.148 5.072-150.554 34.066zm2.676 11.832l162.394-36.746 1.148 5.072-162.395 36.746zm2.676 11.853l84.582-19.14 1.147 5.073L64.2 287.779zm222.98-36.228l89.654-20.286 1.147 5.072-89.653 20.286zm2.674 11.842L451.1 221.576l1.148 5.072-162.395 36.746zm2.687 11.838l162.394-36.747 1.148 5.072L292.54 275.23zm2.678 11.84l150.554-34.067 1.147 5.072L295.22 287.07zm2.676 11.842l162.394-36.746 1.148 5.072-162.395 36.746zm2.676 11.844l84.582-19.14 1.147 5.073-84.581 19.138zm-170.881-16.47l98.11-22.2 15.312 67.67-98.11 22.2zM244.694 63.784l98.11-22.2 15.312 67.669-98.11 22.2zm96.022 70.732l98.11-22.2 15.312 67.669-98.11 22.2z"/><path d="M537.296 103.078c0-7.418-6.022-13.44-13.44-13.44h-186.39c-7.418 0-13.44 6.022-13.44 13.44v281.84c0 7.418 6.022 13.44 13.44 13.44h186.39c7.418 0 13.44-6.022 13.44-13.44v-281.84z" fill="url(#_Linear5)" transform="rotate(-12.75 430.66 243.999)"/><path d="M500.75 87.48c-1.638-7.235-8.84-11.78-16.075-10.142L308.05 117.304c-7.235 1.637-11.78 8.84-10.142 16.075l60.72 268.346c1.637 7.235 8.84 11.78 16.075 10.142l176.624-39.966c7.236-1.637 11.78-8.84 10.143-16.075L500.75 87.48z" fill="#294ace"/><path fill="#bdbdbd" d="M289.78 161.952l21.82-4.937.657 2.907-21.818 4.937zm2.31 10.179l21.82-4.937.657 2.907-21.819 4.937zm2.3 10.181l21.82-4.937.657 2.907-21.819 4.937zm2.313 10.189l21.818-4.937.658 2.907-21.819 4.937zm2.3 10.182l21.818-4.937.658 2.907-21.818 4.937zm2.309 10.179l21.818-4.937.658 2.907-21.819 4.937zm2.3 10.181l21.818-4.937.658 2.907-21.819 4.937zm2.3 10.179l21.818-4.937.658 2.907-21.819 4.937zm2.302 10.191l21.818-4.937.658 2.907-21.819 4.937zm2.3 10.182l21.818-4.937.658 2.907-21.819 4.937zm2.31 10.179l21.818-4.937.658 2.907-21.819 4.937zm2.3 10.181l21.818-4.937.658 2.907-21.819 4.937zm2.312 10.189l21.818-4.937.658 2.907-21.819 4.937zm2.3 10.182l21.818-4.937.658 2.907-21.819 4.937zm2.31 10.179l21.818-4.937.658 2.907-21.819 4.937zm2.3 10.181l21.818-4.937.658 2.907-21.819 4.937zm2.312 10.189l21.818-4.937.658 2.907-21.819 4.937zm2.3 10.182l21.818-4.937.658 2.907-21.819 4.937zm2.3 10.181l21.818-4.937.658 2.907-21.819 4.937zm2.309 10.179l21.818-4.937.658 2.907-21.819 4.937zm2.293 10.191l21.818-4.937.658 2.907-21.819 4.937zm2.309 10.179l21.818-4.937.658 2.907-21.819 4.937zm2.3 10.183l21.818-4.938.658 2.907-21.819 4.937zm2.31 10.178l21.818-4.937.658 2.907-21.819 4.937z"/><path fill="#69f0ae" d="M171.46 373.393l9.754-2.207 20.083 88.757-9.753 2.207z"/><path fill="url(#_Linear6)" d="M5.246 1.639h18v46h-18z" transform="rotate(-12.75 1588.476 -519.92)" opacity=".5"/><path fill="#69f0ae" d="M161.292 339.808l14.63-3.31 9.49 41.94-14.63 3.31z"/><path fill="#fff" fill-opacity=".3" d="M161.292 339.808l14.63-3.31 9.49 41.94-14.63 3.31z"/><path fill="#69f0ae" d="M193.278 460.729l5.852-1.324 1.324 5.852-5.852 1.324z"/><path d="M164.76 348.24l-5.85 1.32.44 1.95 3.75 16.58 1.95-.44-3.75-16.58 3.9-.88-.44-1.95z" fill="#69f0ae" fill-rule="nonzero"/><path d="M164.76 348.24l-5.85 1.32.44 1.95 3.75 16.58 1.95-.44-3.75-16.58 3.9-.88-.44-1.95z" fill="#fff" fill-opacity=".3" fill-rule="nonzero"/><g opacity=".5" fill="#47e6b1"><path d="M184.55 654.76h3v17h-3z"/><path d="M194.55 661.76v3h-17v-3z"/></g><g opacity=".5" fill="#47e6b1"><path d="M727.55 32.76h3v17h-3z"/><path d="M737.55 39.76v3h-17v-3z"/></g><g opacity=".5" fill="#47e6b1"><path d="M637.55 249.76h3v17h-3z"/><path d="M647.55 256.76v3h-17v-3z"/></g><g opacity=".5" fill="#47e6b1"><path d="M895.15 288.76h3v17h-3z"/><path d="M905.15 295.77v3h-17v-3z"/></g><path d="M359.24 653.11a3.67 3.67 0 01-2-4.44 1.74 1.74 0 00.08-.41 1.841 1.841 0 00-3.31-1.22c-.08.112-.148.233-.2.36a3.67 3.67 0 01-4.44 2 1.74 1.74 0 00-.41-.08 1.841 1.841 0 00-1.22 3.31c.112.08.233.148.36.2a3.67 3.67 0 012 4.44 1.74 1.74 0 00-.08.41 1.84 1.84 0 003.53.87 3.67 3.67 0 014.44-2c.133.043.271.07.41.08a1.841 1.841 0 001.22-3.31 1.784 1.784 0 00-.38-.21zm183 12a3.67 3.67 0 01-2-4.44 1.74 1.74 0 00.08-.41 1.841 1.841 0 00-3.31-1.22c-.08.112-.148.233-.2.36a3.67 3.67 0 01-4.44 2 1.74 1.74 0 00-.41-.08 1.841 1.841 0 00-1.22 3.31c.112.08.233.148.36.2a3.67 3.67 0 012 4.44 1.74 1.74 0 00-.08.41 1.84 1.84 0 003.53.87 3.67 3.67 0 014.44-2c.133.043.271.07.41.08a1.841 1.841 0 001.22-3.31 1.784 1.784 0 00-.38-.21zm219-431a3.67 3.67 0 01-2-4.44 1.74 1.74 0 00.08-.41 1.841 1.841 0 00-3.31-1.22c-.08.112-.148.233-.2.36a3.67 3.67 0 01-4.44 2 1.74 1.74 0 00-.41-.08 1.841 1.841 0 00-1.22 3.31c.112.08.233.148.36.2a3.67 3.67 0 012 4.44 1.74 1.74 0 00-.08.41 1.84 1.84 0 003.53.87 3.67 3.67 0 014.44-2c.133.043.271.07.41.08a1.841 1.841 0 001.22-3.31 1.784 1.784 0 00-.38-.21zm152 161a3.67 3.67 0 01-2-4.44 1.74 1.74 0 00.08-.41 1.841 1.841 0 00-3.31-1.22c-.08.112-.148.233-.2.36a3.67 3.67 0 01-4.44 2 1.74 1.74 0 00-.41-.08 1.841 1.841 0 00-1.22 3.31c.112.08.233.148.36.2a3.67 3.67 0 012 4.44 1.74 1.74 0 00-.08.41 1.84 1.84 0 003.53.87 3.67 3.67 0 014.44-2c.133.043.271.07.41.08a1.841 1.841 0 001.22-3.31 1.784 1.784 0 00-.38-.21z" fill="#4d8af0" fill-opacity=".5" fill-rule="nonzero"/><circle cx="106.55" cy="599.76" r="6" fill="#f55f44" fill-opacity=".5"/><circle cx="524.55" cy="50.76" r="6" fill="#4d8af0" fill-opacity=".5"/><circle cx="499.55" cy="489.76" r="6" fill="#47e6b1" fill-opacity=".5"/><circle cx="845.55" cy="639.76" r="6" fill="#f55f44" fill-opacity=".5"/><path d="M-20.814 84.083h286a6.28 6.28 0 016.28 6.28v152.94a6.29 6.29 0 01-6.29 6.29h-286a6.28 6.28 0 01-6.28-6.28V90.383a6.284 6.284 0 016.29-6.3z" fill="url(#_Linear7)" fill-rule="nonzero" transform="rotate(-73.39 517.036 -355.995)" opacity=".5"/><path d="M1021.431 73.197c2.177-7.206-1.906-14.825-9.113-17.002L883.854 17.388c-7.207-2.176-14.825 1.907-17.002 9.113l-76.397 252.9c-2.177 7.207 1.907 14.825 9.113 17.002l128.465 38.807c7.206 2.177 14.824-1.907 17.001-9.113l76.397-252.9z" fill="#fff"/><path d="M983.5 51.11a13.05 13.05 0 01-15.5 7l-53.29-16a13.05 13.05 0 01-9.15-14.32l-28.21-8.37a6.12 6.12 0 00-7.61 4.11l-75.47 252.82a6.12 6.12 0 004.11 7.61l134.84 40.23a6.12 6.12 0 007.61-4.11l75.44-252.82a6.127 6.127 0 00-4.11-7.61l-28.66-8.54z" fill="#e0e0e0" fill-rule="nonzero"/><path d="M959.298 48.408a1.12 1.12 0 00-.77-1.384l-32.355-9.21a1.12 1.12 0 00-.613 2.154l32.354 9.21a1.12 1.12 0 001.384-.77z" fill="#dbdbdb"/><circle cx="966.645" cy="50.297" r="1.35" fill="#dbdbdb" transform="rotate(-74.11 966.645 50.297)"/><path fill="#fff" d="M872.585 69.416l42.42 11.684-10.09 36.636-42.42-11.684z"/><path fill="#294ace" fill-opacity=".3" d="M857.97 122.433l42.42 11.685-10.09 36.635-42.421-11.684z"/><path fill="#fff" d="M843.371 175.472l42.42 11.685-10.09 36.635-42.421-11.684z"/><path fill="#3ad29f" fill-opacity=".3" d="M828.766 228.488l42.42 11.685-10.09 36.635-42.42-11.684z"/><path fill="#fff" d="M923.216 92.7l55.918 15.403-1.063 3.856-55.917-15.402zm-3.188 11.569l55.917 15.402-1.062 3.856-55.917-15.402zm-11.152 40.485l55.917 15.402-1.062 3.856-55.917-15.402zm-3.188 11.576l55.918 15.403-1.063 3.856-55.917-15.402zm-11.152 40.486l55.917 15.403-1.062 3.856-55.917-15.402zm-3.188 11.567l55.918 15.403-1.063 3.856-55.917-15.402zm-11.152 40.496l55.917 15.402-1.062 3.857-55.917-15.403zm-3.188 11.568l55.918 15.402-1.062 3.857-55.918-15.403z"/><path fill="url(#_Linear8)" d="M-15.015 68.962h203.96v62.36h-203.96z" transform="rotate(-52.76 760.19 59.72)" opacity=".5"/><path fill="#e0e0e0" d="M422.713 522.464l47.202 35.88-121.776 160.2-47.201-35.88z"/><path fill="#4d8af0" d="M427.718 530.335l33.365 25.362-25.362 33.364-33.365-25.362z"/><path fill="#4d8af0" fill-opacity=".5" d="M397.105 570.622l33.365 25.363-25.362 33.364-33.365-25.362z"/><path fill="#4d8af0" fill-opacity=".3" d="M366.475 610.904l33.365 25.362-25.362 33.365-33.365-25.362z"/><path fill="url(#_Linear9)" d="M-38.229 75.12h203.2v62.36h-203.2z" transform="rotate(-71.1 561.11 159.691)" opacity=".5"/><path fill="#f5f5f5" d="M354.228 509l56.093 19.206-64.936 189.661-56.093-19.205z"/><path fill="#ff5252" d="M361.438 514.89l39.65 13.575-13.575 39.65-39.65-13.575z"/><path fill="#ff5252" fill-opacity=".5" d="M345.056 562.76l39.65 13.576-13.575 39.65-39.65-13.575z"/><path fill="#ff5252" fill-opacity=".3" d="M328.66 610.64l39.65 13.575-13.575 39.65-39.65-13.575z"/><path fill="url(#_Linear10)" d="M-57.408 74.045h203.2v62.36h-203.2z" transform="rotate(-82.8 475.298 197.023)" opacity=".5"/><path fill="#f5f5f5" d="M313.91 510.15l58.822 7.431-25.125 198.89-58.823-7.432z"/><path fill="#69f0ae" d="M322.135 514.455l41.58 5.253-5.253 41.58-41.58-5.253z"/><path fill="#69f0ae" fill-opacity=".5" d="M315.793 564.654l41.58 5.253-5.253 41.58-41.58-5.254z"/><path fill="#69f0ae" fill-opacity=".3" d="M309.45 614.853l41.58 5.253-5.252 41.58-41.58-5.253z"/><path fill="url(#_Linear11)" d="M.88.66h62.36v203.2H.88z" transform="translate(284 515)" opacity=".5"/><path fill="#fff" d="M286.92 517.02h59.29v200.47h-59.29z"/><path fill="#294ace" d="M295.61 520.26h41.91v41.91h-41.91z"/><path fill="#294ace" fill-opacity=".5" d="M295.61 570.86h41.91v41.91h-41.91z"/><path fill="#294ace" fill-opacity=".3" d="M295.61 621.47h41.91v41.91h-41.91z"/></g><path d="M511.975 8.057v6.088h8.626v33.437l-4.414.152-4.465.153-.051 2.283c0 1.268.101 2.588.203 2.892.152.507 3.196.66 12.837.66h12.634v-6.089h-4.313c-3.095 0-4.313-.203-4.364-.66 0-.304-.05-9.234-.05-19.788l-.051-19.128h-16.592zm-106.297 14.41c-2.74.862-4.871 2.03-5.937 3.196-.862.913-.812 1.066 1.32 3.146 1.37 1.37 2.333 1.979 2.587 1.624.812-1.37 4.313-2.588 7.408-2.588 2.841 0 3.247.152 4.82 1.725.964.964 1.725 2.182 1.725 2.79v1.421c0 .203-1.623.406-3.653.508-4.414.203-8.118.964-10.554 2.181-8.22 4.161-8.067 14.563.203 16.998 4.82 1.42 9.285.761 12.228-1.877l1.776-1.523v3.654h8.22l-.203-11.569-.152-11.518-1.421-2.587c-1.674-3.045-3.298-4.364-6.647-5.48-2.841-.964-8.828-1.015-11.72-.101zm12.177 18.671c-.964 4.415-3.247 6.596-7.256 6.9-3.552.255-5.683-1.065-5.683-3.5 0-3.095 3.501-4.871 9.793-4.972l3.501-.051-.355 1.623zm25.369-18.671c-2.74.862-4.87 2.03-5.936 3.196-.863.913-.812 1.066 1.319 3.146 1.37 1.37 2.334 1.979 2.588 1.624.812-1.37 4.313-2.588 7.408-2.588 2.84 0 3.247.152 4.82 1.725.964.964 1.725 2.182 1.725 2.79v1.421c0 .203-1.624.406-3.653.508-4.415.203-8.119.964-10.554 2.181-8.22 4.161-8.067 14.563.203 16.998 4.82 1.42 9.285.761 12.228-1.877l1.776-1.523v3.654h8.22l-.203-11.569-.153-11.518-1.42-2.587c-1.675-3.045-3.298-4.364-6.647-5.48-2.841-.964-8.829-1.015-11.72-.101zm12.178 18.671c-.964 4.415-3.248 6.596-7.256 6.9-1.392.1-2.95.013-4.173-.74-1.864-1.15-1.938-3.753-.506-5.265.779-.821 1.864-1.327 2.925-1.666 1.882-.6 3.901-.77 5.864-.801l3.5-.051-.354 1.623zm29.682-18.418c-.964.558-2.233 1.42-2.74 2.03-1.37 1.522-1.827 1.319-1.827-.71v-1.776h-7.661l.304 43.128h7.865v-7.408c0-6.749.05-7.307.811-6.546 2.791 2.791 9.286 3.45 13.243 1.37 4.77-2.486 7.002-7.255 7.002-14.815 0-7.814-2.587-12.99-7.61-15.273-2.639-1.217-7.053-1.217-9.387 0zm6.545 6.444c4.262 3.603 4.008 14.867-.457 17.86-2.435 1.675-6.24 1.37-7.915-.609-3.196-3.704-2.943-13.7.406-17.099 2.03-2.03 5.683-2.13 7.966-.152zm122.599-6.545c-.812.406-2.283 1.471-3.146 2.334l-1.674 1.573v-4.262h-7.966v31.458h7.966V43.168c0-9.539.101-10.655 1.014-12.127 1.726-2.841 6.444-4.312 8.474-2.638 1.877 1.573 2.182 3.653 2.182 14.664v10.655h7.61V42.66c0-11.823-.355-14.309-2.537-17.353-2.232-3.146-8.422-4.567-11.923-2.69zm-50.993 2.283c.558 1.471 3.248 8.575 5.937 15.729l4.972 13.09h6.14l2.181-5.225c5.328-12.685 8.22-20.245 8.88-23.137l.71-3.095h-7.51v1.42c0 2.131-1.725 7.916-4.059 13.548-2.03 4.921-3.044 6.697-3.044 5.429 0-.305-1.623-5.024-3.602-10.503l-3.653-9.894h-7.966l1.014 2.638zm-16.319 20.093c-2.74 2.181-2.943 5.073-.507 7.509 1.928 1.928 3.551 2.182 5.885.964 1.878-.964 2.537-2.182 2.537-4.567 0-3.856-4.972-6.291-7.915-3.906zm-67.404 33.022c-.71.102-3.552 2.284-3.552 2.284v43.94l-4.313 8.726c-4.21 8.525-4.312 8.728-4.312 12.38 0 3.248.152 3.958 1.217 5.176l1.218 1.42h86.46l1.217-1.42c1.065-1.218 1.218-1.928 1.218-5.175 0-3.653-.102-3.856-4.313-12.38l-4.313-8.728V80.706l-2.385-2.79h-33.437c-18.418-.05-33.995.05-34.705.101zm67.33 3.248c.203.355.406 10.452.406 22.477l.051 21.818 3.653 7.204c2.03 4.009 3.653 7.358 3.653 7.51 0 .152-18.722.254-41.605.254-22.884 0-41.606-.102-41.606-.254 0-.152 1.522-3.349 3.4-7.104l3.45-6.85 27.145-.1 42.618-.66v-1.878c-1.457-.026-14.229.011-16.082 0-.507-.101-12.634-.152-26.891-.152-14.309.05-26.03-.05-26.08-.254 0-.152-.102-9.488-.203-20.803-.102-13.75 0-20.752.355-21.158.761-.964 67.128-.964 67.736-.05zm9.032 64.64c-.102 1.27-.355 2.538-.609 2.791-.254.254-18.215.406-42.57.356l-42.062-.153-.153-2.689-.152-2.638h85.647l-.101 2.334z" fill="red" fill-rule="nonzero"/><path d="M482.404 84.613c-.761.863-.862 2.791-.862 17.505 0 15.932.05 16.643 1.014 17.607 1.015 1.014 1.675 1.014 30.444 1.014s29.428 0 30.443-1.014c.964-.964 1.015-1.675 1.015-17.658 0-15.526-.051-16.743-.914-17.504-.862-.761-3.704-.863-30.646-.863-28.11 0-29.733.05-30.494.913zm59.01 1.624v31.458h-56.828V86.237h56.827zm-60.989 43.737c-.507 1.42.203 1.928 2.69 1.928 2.333 0 2.486-.102 2.486-1.269 0-1.167-.153-1.268-2.487-1.268-1.522 0-2.587.254-2.689.609zm8.372.203c-.456 1.218.558 1.826 2.943 1.623 1.877-.101 2.283-.355 2.385-1.319.152-1.015 0-1.116-2.436-1.116-1.877 0-2.638.203-2.892.812zm8.677-.051c-.508 1.269.456 1.877 2.892 1.674 1.826-.101 2.232-.355 2.232-1.167 0-.862-.406-1.014-2.435-1.167-1.827-.101-2.487.051-2.69.66zm8.626 0c-.508 1.269.456 1.877 2.891 1.674 1.827-.101 2.233-.355 2.233-1.167 0-.862-.406-1.014-2.436-1.167-1.826-.101-2.486.051-2.689.66zm8.625 0c-.508 1.269.456 1.877 2.892 1.674 1.826-.101 2.232-.355 2.232-1.167 0-.862-.406-1.014-2.435-1.167-1.827-.101-2.486.051-2.69.66zm8.625 0c-.507 1.269.457 1.877 2.892 1.674 1.827-.101 2.233-.355 2.233-1.167 0-.862-.406-1.014-2.436-1.167-1.826-.101-2.486.051-2.689.66zm8.524.355c.153 1.015.508 1.167 2.487 1.32 1.826.1 2.435-.051 2.689-.66.507-1.37-.102-1.776-2.79-1.776-2.386 0-2.538.101-2.386 1.116zm8.525.152c0 1.167.152 1.269 2.486 1.269 2.435 0 3.196-.507 2.74-1.928-.153-.355-1.167-.609-2.74-.609-2.334 0-2.486.101-2.486 1.268zm-55.458 4.668c-.609.559-.406 2.182.304 2.233.305.05 1.218.101 2.03.152 1.776.203 3.146-.812 2.74-1.928-.254-.558-.964-.812-2.537-.812-1.218 0-2.385.152-2.537.355zm8.626 0c-.61.559-.406 2.182.304 2.233.304.05 1.218.101 2.03.152 1.775.203 3.145-.812 2.74-1.928-.254-.558-.965-.812-2.537-.812-1.218 0-2.385.152-2.537.355zm8.625-.051c-.609.61-.406 2.132.305 2.335.507.203 18.62.152 20.955-.051.507-.05.71-.457.609-1.218-.153-1.116-.203-1.116-10.858-1.268-5.835-.051-10.808.05-11.01.203zm25.218.457c-.457 1.117.253 1.725 2.08 1.827 2.943.152 3.4 0 3.196-1.218-.152-.964-.507-1.116-2.587-1.268-1.827-.102-2.487.05-2.69.66zm8.574.051c-.406 1.015.254 1.573 2.233 1.877 1.928.305 3.5-.66 3.044-1.877-.457-1.116-4.82-1.167-5.277 0z" fill="red" fill-rule="nonzero"/><defs><linearGradient id="_Linear1" x1="0" y1="0" x2="1" y2="0" gradientUnits="userSpaceOnUse" gradientTransform="matrix(0 -210 210 0 721.55 535.76)"><stop offset="0" stop-color="gray" stop-opacity=".25"/><stop offset=".54" stop-color="gray" stop-opacity=".12"/><stop offset="1" stop-color="gray" stop-opacity=".1"/></linearGradient><linearGradient id="_Linear2" x1="0" y1="0" x2="1" y2="0" gradientUnits="userSpaceOnUse" gradientTransform="rotate(-90 94831.2 -21935.8) scale(15625.3)"><stop offset="0" stop-color="gray" stop-opacity=".25"/><stop offset=".54" stop-color="gray" stop-opacity=".12"/><stop offset="1" stop-color="gray" stop-opacity=".1"/></linearGradient><linearGradient id="_Linear3" x1="0" y1="0" x2="1" y2="0" gradientUnits="userSpaceOnUse" gradientTransform="matrix(0 -95308 95308 0 50867.5 132293)"><stop offset="0" stop-color="gray" stop-opacity=".25"/><stop offset=".54" stop-color="gray" stop-opacity=".12"/><stop offset="1" stop-color="gray" stop-opacity=".1"/></linearGradient><linearGradient id="_Linear4" x1="0" y1="0" x2="1" y2="0" gradientUnits="userSpaceOnUse" gradientTransform="matrix(0 -95308 95308 0 98155.7 132245)"><stop offset="0" stop-color="gray" stop-opacity=".25"/><stop offset=".54" stop-color="gray" stop-opacity=".12"/><stop offset="1" stop-color="gray" stop-opacity=".1"/></linearGradient><linearGradient id="_Linear5" x1="0" y1="0" x2="1" y2="0" gradientUnits="userSpaceOnUse" gradientTransform="matrix(0 -95308 95308 0 110815 158556)"><stop offset="0" stop-color="gray" stop-opacity=".25"/><stop offset=".54" stop-color="gray" stop-opacity=".12"/><stop offset="1" stop-color="gray" stop-opacity=".1"/></linearGradient><linearGradient id="_Linear6" x1="0" y1="0" x2="1" y2="0" gradientUnits="userSpaceOnUse" gradientTransform="matrix(324 0 0 324 4194.21 19042.9)"><stop offset="0" stop-color="gray" stop-opacity=".25"/><stop offset=".54" stop-color="gray" stop-opacity=".12"/><stop offset="1" stop-color="gray" stop-opacity=".1"/></linearGradient><linearGradient id="_Linear7" x1="0" y1="0" x2="1" y2="0" gradientUnits="userSpaceOnUse" gradientTransform="rotate(-85.874 47325.257 18056.017) scale(51275.51)"><stop offset="0" stop-color="gray" stop-opacity=".25"/><stop offset=".54" stop-color="gray" stop-opacity=".12"/><stop offset="1" stop-color="gray" stop-opacity=".1"/></linearGradient><linearGradient id="_Linear8" x1="0" y1="0" x2="1" y2="0" gradientUnits="userSpaceOnUse" gradientTransform="rotate(-90 73575.3 -26248.1) scale(12718.9)"><stop offset="0" stop-color="gray" stop-opacity=".25"/><stop offset=".54" stop-color="gray" stop-opacity=".12"/><stop offset="1" stop-color="gray" stop-opacity=".1"/></linearGradient><linearGradient id="_Linear9" x1="0" y1="0" x2="1" y2="0" gradientUnits="userSpaceOnUse" gradientTransform="matrix(0 -12671.6 12671.6 0 93198.1 51328.2)"><stop offset="0" stop-color="gray" stop-opacity=".25"/><stop offset=".54" stop-color="gray" stop-opacity=".12"/><stop offset="1" stop-color="gray" stop-opacity=".1"/></linearGradient><linearGradient id="_Linear10" x1="0" y1="0" x2="1" y2="0" gradientUnits="userSpaceOnUse" gradientTransform="matrix(0 -12671.6 12671.6 0 85187 50486.5)"><stop offset="0" stop-color="gray" stop-opacity=".25"/><stop offset=".54" stop-color="gray" stop-opacity=".12"/><stop offset="1" stop-color="gray" stop-opacity=".1"/></linearGradient><linearGradient id="_Linear11" x1="0" y1="0" x2="1" y2="0" gradientUnits="userSpaceOnUse" gradientTransform="matrix(0 -41290.2 41290.2 0 19648 146073)"><stop offset="0" stop-color="gray" stop-opacity=".25"/><stop offset=".54" stop-color="gray" stop-opacity=".12"/><stop offset="1" stop-color="gray" stop-opacity=".1"/></linearGradient></defs></svg>